M48
;DRILL file {KiCad (5.0.0)} date 09/12/18 15:38:54
;FORMAT={-:-/ absolute / inch / decimal}
FMAT,2
INCH,TZ
T1C0.0157
T2C0.0256
%
G90
G05
M72
T1
X-4.2437Y-2.1
X-4.1937Y-2.0715
X-4.1937Y-2.35
X-4.1937Y-2.8
X-4.1756Y-2.0098
X-4.1756Y-2.5217
X-4.1756Y-3.2697
X-4.1437Y-2.3
X-4.1437Y-2.95
X-4.0938Y-2.9
X-4.0438Y-1.5
X-3.9937Y-2.9
X-3.9937Y-2.95
X-3.9788Y-1.3406
X-3.9788Y-2.3642
X-3.9788Y-2.8366
X-3.8438Y-2.0558
X-3.8213Y-1.3406
X-3.795Y-2.0487
X-3.7819Y-2.3642
X-3.7819Y-2.8366
X-3.7437Y-1.5
X-3.5437Y-2.05
X-3.5437Y-2.25
X-3.5437Y-2.75
X-3.4937Y-2.05
X-3.4937Y-2.2
X-3.4562Y-2.55
X-3.4562Y-2.7
X-3.4438Y-3.5
X-3.4276Y-2.0098
X-3.4276Y-2.3248
X-3.4276Y-2.876
X-3.3937Y-2.6
X-3.3937Y-2.7
X-3.3438Y-2.35
X-3.3438Y-3.45
X-3.2701Y-1.3406
X-3.2701Y-2.0886
X-3.2308Y-1.1437
X-3.2308Y-2.6791
X-3.0733Y-1.1437
X-3.0339Y-1.3406
X-3.0339Y-2.0886
X-3.0339Y-2.6791
X-2.9438Y-4.0848
X-2.8438Y-1.3
X-2.7937Y-1.2
X-2.7583Y-1.1043
X-2.7583Y-1.3799
X-2.6796Y-1.7343
X-2.6796Y-2.1673
X-2.6796Y-2.6398
X-2.6193Y-4.2086
X-2.5993Y-4.25
X-2.5938Y-3.1
X-2.5938Y-4.5
X-2.5938Y-4.55
X-2.5793Y-4.3
X-2.5603Y-4.35
X-2.5437Y-3.65
X-2.5437Y-4.4
X-2.5437Y-4.45
X-2.5221Y-1.8524
X-2.5118Y-3.35
X-2.4937Y-1.1939
X-2.4937Y-1.4
X-2.4937Y-4.45
X-2.4827Y-0.9862
X-2.4827Y-2.4823
X-2.4438Y-4.45
X-2.4432Y-4.4
X-2.404Y-4.9232
X-2.3937Y-3.4
X-2.3937Y-4.4
X-2.3438Y-3.35
X-2.3438Y-3.6
X-2.3438Y-4.7
X-2.2937Y-0.9
X-2.2937Y-3.2
X-2.2937Y-3.25
X-2.2859Y-0.9862
X-2.2859Y-1.8524
X-2.2859Y-2.4823
X-2.2437Y-3.35
X-2.2437Y-4.15
X-2.1938Y-1.9
X-2.1938Y-4.
X-2.1437Y-1.25
X-2.1437Y-4.35
X-2.0938Y-3.15
X-2.0938Y-3.95
X-2.0938Y-4.3
X-2.0932Y-1.6995
X-2.0437Y-1.85
X-2.0437Y-2.8
X-2.0437Y-4.25
X-1.9937Y-2.5
X-1.9937Y-2.6
X-1.9937Y-3.15
X-1.9866Y-1.8429
X-1.9601Y-2.05
X-1.9563Y-3.2875
X-1.9315Y-1.813
X-1.9315Y-2.3248
X-1.9315Y-2.6004
X-1.8938Y-2.05
X-1.8938Y-4.5
X-1.8438Y-4.45
X-1.7937Y-3.3
X-1.7937Y-4.6
X-1.7937Y-4.6422
X-1.7741Y-2.0492
X-1.7347Y-1.1831
X-1.7347Y-2.6791
X-1.6923Y-4.0632
X-1.6438Y-1.
X-1.5923Y-3.9632
X-1.5437Y-2.
X-1.5378Y-1.1831
X-1.5378Y-2.0492
X-1.5378Y-2.6791
X-1.4937Y-3.45
X-1.4437Y-2.
X-1.3938Y-4.05
X-1.3938Y-4.15
X-1.3516Y-4.0965
X-1.2937Y-2.25
X-1.2437Y-2.2
X-1.2437Y-2.3
X-1.2437Y-3.45
X-1.2437Y-5.1392
X-1.1937Y-3.8
X-1.1835Y-2.0098
X-1.1835Y-2.5217
X-1.1835Y-2.7972
X-1.1438Y-3.8
X-1.1438Y-4.65
X-1.1154Y-4.1752
X-1.0938Y-3.5
X-1.0938Y-4.95
X-1.0437Y-1.15
X-1.0437Y-3.95
X-1.0437Y-4.05
X-0.9938Y-4.6
X-0.9867Y-1.3799
X-0.9867Y-2.2461
X-0.9867Y-2.876
X-0.9437Y-4.8
X-0.9437Y-5.2
X-0.8937Y-1.15
X-0.8937Y-2.7
X-0.8937Y-3.9
X-0.8937Y-4.1508
X-0.8937Y-4.65
X-0.8438Y-4.05
X-0.8438Y-4.45
X-0.7937Y-3.5
X-0.7937Y-3.55
X-0.7937Y-3.6
X-0.7937Y-3.65
X-0.7937Y-3.7
X-0.7937Y-3.75
X-0.7937Y-4.05
X-0.7898Y-1.3406
X-0.7898Y-2.2461
X-0.7898Y-2.876
X-0.7438Y-1.2
X-0.7438Y-1.4
X-0.7438Y-4.05
X-0.6937Y-1.4
X-0.6937Y-4.2
X-0.6937Y-4.2566
X-0.6437Y-1.15
X-0.6437Y-4.1508
X-0.5536Y-1.1437
X-0.5437Y-4.2
X-0.5142Y-1.1831
X-0.5142Y-1.498
X-0.4937Y-4.35
X-0.3937Y-4.
X-0.3567Y-1.1831
X-0.3438Y-3.9
X-0.328Y-4.2933
X-0.3174Y-1.1437
X-0.3174Y-1.498
X-0.2938Y-3.8
X-0.2938Y-4.
X-0.1437Y-1.8
X-0.1437Y-2.45
X-0.1437Y-4.6
X-0.1019Y-1.9505
X-0.0621Y-1.95
X-0.013Y-4.4114
X-0.013Y-4.4508
X0.0062Y-2.45
X0.0563Y-1.95
X0.0563Y-4.6
X0.0662Y-4.4897
X0.1051Y-4.4508
X0.1062Y-1.7
X0.1062Y-1.8
X0.1062Y-2.15
X0.114Y-2.05
X0.1444Y-4.372
X0.1562Y-1.85
X0.1562Y-2.1
X0.2062Y-1.8
X0.2562Y-1.75
X0.3062Y-2.
X0.3563Y-2.05
X0.3563Y-4.65
X0.3807Y-4.4508
X0.4195Y-1.5379
X0.4594Y-1.5374
X0.4594Y-2.05
X0.4594Y-4.45
X0.4988Y-1.5374
X0.4988Y-2.15
X0.4988Y-4.7
X0.8688Y-4.4375
X0.9187Y-4.4875
X0.9562Y-1.3
X1.0062Y-1.3
X1.0562Y-1.3
X1.0562Y-2.25
X1.0726Y-4.2
X1.0809Y-3.7753
X1.0825Y-3.8737
X1.1062Y-1.95
X1.1062Y-2.3
X1.1062Y-2.3492
X1.1187Y-4.3375
X1.1187Y-4.4375
X1.1681Y-1.6555
X1.1848Y-1.9215
X1.2562Y-1.95
X1.4062Y-1.55
X1.4437Y-1.6161
X1.4437Y-1.7343
X1.4563Y-2.1
X1.4688Y-4.3375
X1.5062Y-1.85
X1.5062Y-1.9
X1.6062Y-1.65
X1.6062Y-1.9
X1.6062Y-3.6
X1.6187Y-4.1875
X1.6476Y-1.3587
X1.6562Y-1.15
X1.6562Y-1.6
X1.6562Y-1.85
X1.6562Y-3.6
X1.7063Y-1.6
X1.7063Y-1.85
X1.7063Y-3.55
X1.736Y-1.35
X1.7562Y-1.6
X1.7562Y-1.85
X1.7562Y-3.65
X1.7688Y-4.1375
X1.7754Y-1.15
X1.8185Y-3.6215
X1.8562Y-3.55
X1.9187Y-3.4875
X2.0063Y-3.75
X2.0688Y-1.4875
X2.0688Y-2.1277
X2.0688Y-2.9875
X2.0887Y-4.0875
X2.1187Y-1.2375
X2.1187Y-4.05
X2.1187Y-4.2875
X2.1687Y-1.2875
X2.2062Y-3.75
X2.2068Y-1.2997
X2.2188Y-1.4875
X2.2188Y-4.8375
X2.2492Y-4.35
X2.2687Y-2.0875
X2.2687Y-2.8875
X2.2687Y-2.9875
X2.2777Y-4.2969
X2.3062Y-4.35
X2.3562Y-4.35
X2.3687Y-4.0375
X2.3687Y-4.5875
X2.4062Y-4.1
X2.4187Y-2.7473
X2.4187Y-3.4875
X2.4688Y-1.1875
X2.4688Y-1.3375
X2.4688Y-2.0875
X2.5187Y-2.8375
X2.5187Y-5.0375
X2.5688Y-1.9375
X2.5688Y-2.0875
X2.5688Y-2.3875
X2.5688Y-2.5875
X2.5688Y-2.9875
X2.5688Y-3.9375
X2.5688Y-4.6875
X2.6187Y-1.7875
X2.6187Y-3.0875
X2.6687Y-5.0375
X2.7188Y-4.0875
X2.7563Y-3.45
X2.7563Y-3.5
X2.7563Y-3.9
X2.7687Y-2.0875
X2.7687Y-2.7875
X2.8164Y-1.3375
X2.8188Y-1.2875
X2.8188Y-1.9375
X2.8188Y-2.7875
X2.9062Y-4.6
X2.9562Y-4.6
X2.9688Y-1.2875
X2.9688Y-1.8875
X3.0063Y-4.6
X3.0187Y-2.7875
X3.0562Y-4.6
X3.1062Y-4.6
X3.1187Y-1.1375
X3.12Y-1.0887
X3.1687Y-0.9375
X3.1687Y-1.8875
X3.2062Y-3.55
X3.2563Y-1.25
X3.2563Y-4.9
X3.2687Y-2.0525
X3.2687Y-2.0918
X3.2687Y-2.6375
X3.3062Y-1.75
X3.3062Y-1.866
X3.3062Y-2.4
X3.3062Y-2.65
X3.3188Y-1.9875
X3.3687Y-1.7375
X3.3687Y-1.9375
X3.3687Y-2.1375
X3.3687Y-2.3875
X3.3687Y-2.6375
X3.3687Y-2.8875
X3.4062Y-4.45
X3.4187Y-1.5875
X3.4187Y-3.3875
X3.4562Y-4.716
X3.5063Y-5.0334
X3.5187Y-1.0875
X3.5562Y-3.55
X3.5562Y-3.85
X3.5562Y-4.55
X3.5688Y-1.0875
X3.5688Y-1.7375
X3.5688Y-2.5875
X3.6062Y-3.4
X3.6062Y-3.6
X3.6062Y-3.75
X3.6562Y-3.15
X3.6562Y-3.7
X3.6562Y-4.75
X3.6562Y-4.85
X3.7062Y-3.1
X3.7062Y-3.45
X3.7062Y-4.5
X3.7188Y-1.0875
X3.7563Y-3.05
X3.7563Y-3.5
X3.7563Y-4.5
X3.7687Y-1.7375
X3.7687Y-2.5875
X3.7747Y-4.2448
X3.8062Y-3.4
X3.8062Y-3.5
X3.8562Y-2.7
X3.8562Y-3.1
X3.8562Y-3.5
X3.8562Y-4.35
X3.8562Y-4.6
X3.8687Y-1.2375
X3.8687Y-1.8452
X3.8687Y-2.5875
X3.8687Y-2.7375
X3.9062Y-3.15
X3.9062Y-3.466
X3.9062Y-3.55
X3.9062Y-3.75
X3.9512Y-4.2848
X3.9562Y-3.5
X3.9562Y-3.7
X3.9562Y-4.4
X3.9688Y-0.9375
X3.9688Y-1.2875
X3.9688Y-5.0375
X4.0062Y-3.7
X4.0062Y-4.4
X4.0214Y-1.1348
X4.0562Y-4.35
X4.0687Y-1.7375
X4.0687Y-1.8875
X4.0687Y-1.9375
X4.0687Y-2.7375
X4.0902Y-2.7
X4.1063Y-4.35
X4.1187Y-1.416
X4.1187Y-2.6375
X4.1187Y-3.0875
X4.1562Y-1.6
X4.1562Y-4.35
X4.161Y-1.8952
X4.2062Y-3.9
X4.2562Y-3.85
X4.2562Y-4.3
X4.2687Y-1.3875
X4.2687Y-5.0375
X4.2704Y-1.8358
X4.3062Y-3.9
X4.3187Y-1.2875
X4.3187Y-2.7875
X4.3687Y-1.8875
X4.4062Y-4.3
X4.4062Y-4.7
X4.4688Y-2.1375
X4.5187Y-1.2875
X4.5187Y-1.9375
X4.5187Y-2.7875
X4.5562Y-4.75
X4.6063Y-4.4
X4.6187Y-2.0375
X4.6187Y-2.8875
X4.7188Y-1.1375
X4.7188Y-2.9875
X4.7188Y-3.4375
X4.7687Y-1.9375
X4.7687Y-2.0875
X4.7687Y-2.7875
X4.7687Y-2.8375
X4.7687Y-3.2875
X4.7687Y-3.3375
X4.8187Y-1.8875
X4.8187Y-2.2875
X4.8187Y-2.6375
X4.8187Y-2.7875
X4.8687Y-2.0875
X4.8687Y-2.1875
X4.8687Y-2.7875
X4.8687Y-3.2875
X4.9188Y-1.5875
X4.9188Y-2.3375
X4.9188Y-2.5375
X4.9688Y-1.9875
X4.9701Y-2.3821
X5.011Y-2.1952
X5.0187Y-1.9875
X5.0187Y-2.2375
X5.0213Y-2.7349
X5.0613Y-2.895
X5.0687Y-1.4875
X5.0687Y-1.5875
X5.0687Y-2.9875
X5.0713Y-2.7849
X5.1063Y-4.2
X5.1187Y-2.0875
X5.1612Y-1.9375
X5.2062Y-3.7
X5.2062Y-3.8
X5.2687Y-1.4875
X5.2687Y-2.1277
X5.2687Y-2.3375
X5.2687Y-2.9875
X5.3187Y-3.0375
X5.3475Y-3.0644
X5.3687Y-2.1875
X5.4188Y-1.3375
X5.4402Y-3.2
T2
X-3.3882Y-3.6634
X-3.3382Y-3.6634
X-3.2882Y-3.6634
X-3.2382Y-3.6634
X-3.1882Y-3.6634
X-3.1382Y-3.6634
X-3.0882Y-3.6634
X-3.0382Y-3.6634
X4.3563Y-3.7
X4.4062Y-3.7
X4.4562Y-3.7
X4.5062Y-3.7
X4.5562Y-3.7
X4.6063Y-3.7
X4.6562Y-3.7
X4.7062Y-3.7
T0
M30
