M48
;DRILL file {KiCad (5.0.0)} date 09/14/18 16:20:58
;FORMAT={-:-/ absolute / inch / decimal}
FMAT,2
INCH,TZ
T1C0.0217
T2C0.0276
T3C0.0670
T4C0.1181
T5C0.1570
%
G90
G05
M72
T1
X1.5726Y-1.0229
X1.8699Y-1.0229
X-0.5994Y-1.0229
X-0.3022Y-1.0229
T2
X1.4929Y-0.8241
X1.5027Y-1.015
X1.9398Y-1.015
X1.9496Y-0.8241
X-0.6791Y-0.8241
X-0.6693Y-1.015
X-0.2323Y-1.015
X-0.2224Y-0.8241
T3
X4.9562Y-3.1875
X5.3563Y-3.1875
X-0.073Y-4.7217
X0.2896Y-4.8907
X2.7062Y-1.5
X3.1062Y-1.5
X2.4196Y-4.4267
X2.7821Y-4.2577
X-4.0858Y-3.1875
X-3.6858Y-3.1875
X-2.5858Y-2.0625
X-2.1858Y-2.0625
X-3.3358Y-1.5
X-2.9358Y-1.5
X-3.3358Y-3.
X-2.9358Y-3.
X0.9809Y-4.8907
X1.3434Y-4.7217
X1.9563Y-1.6875
X2.3562Y-1.6875
X-1.8358Y-1.5
X-1.4358Y-1.5
X3.4562Y-1.3125
X3.8562Y-1.3125
X-2.5858Y-1.3125
X-2.1858Y-1.3125
X-4.0858Y-2.4375
X-3.6858Y-2.4375
X-4.0858Y-1.6875
X-3.6858Y-1.6875
X4.2062Y-2.25
X4.6063Y-2.25
X4.9562Y-2.4375
X5.3563Y-2.4375
X3.4562Y-2.8125
X3.8562Y-2.8125
X-0.7527Y-4.4047
X-0.3902Y-4.5738
X4.2062Y-3.
X4.6063Y-3.
X-1.0858Y-2.4375
X-0.6858Y-2.4375
X1.9563Y-2.4375
X2.3562Y-2.4375
X-1.0858Y-3.1875
X-0.6858Y-3.1875
X-2.5858Y-2.8125
X-2.1858Y-2.8125
X3.4562Y-2.0625
X3.8562Y-2.0625
X1.6606Y-4.5738
X2.0232Y-4.4047
X-3.3358Y-2.25
X-2.9358Y-2.25
X2.7062Y-2.25
X3.1062Y-2.25
X-1.5117Y-4.2577
X-1.1491Y-4.4267
X-1.0858Y-1.6875
X-0.6858Y-1.6875
X4.9562Y-1.6875
X5.3563Y-1.6875
X1.9563Y-3.1875
X2.3562Y-3.1875
X2.7062Y-3.
X3.1062Y-3.
X4.2062Y-1.5
X4.6063Y-1.5
X-1.8358Y-3.
X-1.4358Y-3.
X-1.8358Y-2.25
X-1.4358Y-2.25
T4
X2.0562Y-2.6375
X2.3062Y-2.5375
X-0.9858Y-3.3875
X-0.7358Y-3.2875
X-2.4858Y-3.0125
X-2.2358Y-2.9125
X3.5562Y-2.2625
X3.8062Y-2.1625
X1.8358Y-4.7128
X2.0201Y-4.5165
X-3.2358Y-2.45
X-2.9858Y-2.35
X2.8062Y-2.45
X3.0562Y-2.35
X-1.5055Y-4.4812
X-1.2367Y-4.4962
X-0.9858Y-1.8875
X-0.7358Y-1.7875
X5.0562Y-1.8875
X5.3062Y-1.7875
X2.0562Y-3.3875
X2.3062Y-3.2875
X2.8062Y-3.2
X3.0562Y-3.1
X4.3062Y-1.7
X4.5562Y-1.6
X-1.7358Y-3.2
X-1.4858Y-3.1
X-1.7358Y-2.45
X-1.4858Y-2.35
X5.0562Y-3.3875
X5.3062Y-3.2875
X-0.0668Y-4.9452
X0.202Y-4.9602
X2.8062Y-1.7
X3.0562Y-1.6
X2.5948Y-4.5657
X2.7791Y-4.3694
X-3.9858Y-3.3875
X-3.7358Y-3.2875
X-2.4858Y-2.2625
X-2.2358Y-2.1625
X-3.2358Y-1.7
X-2.9858Y-1.6
X-3.2358Y-3.2
X-2.9858Y-3.1
X1.1561Y-5.0297
X1.3404Y-4.8334
X2.0562Y-1.8875
X2.3062Y-1.7875
X-1.7358Y-1.7
X-1.4858Y-1.6
X3.5562Y-1.5125
X3.8062Y-1.4125
X-2.4858Y-1.5125
X-2.2358Y-1.4125
X-3.9858Y-2.6375
X-3.7358Y-2.5375
X-3.9858Y-1.8875
X-3.7358Y-1.7875
X4.3062Y-2.45
X4.5562Y-2.35
X5.0562Y-2.6375
X5.3062Y-2.5375
X3.5562Y-3.0125
X3.8062Y-2.9125
X-0.7466Y-4.6282
X-0.4777Y-4.6433
X4.3062Y-3.2
X4.5562Y-3.1
X-0.9858Y-2.6375
X-0.7358Y-2.5375
T5
X5.1562Y-3.1875
X0.1083Y-4.8062
X2.9062Y-1.5
X2.6009Y-4.3422
X-3.8858Y-3.1875
X-2.3858Y-2.0625
X-3.1358Y-1.5
X-3.1358Y-3.
X1.1622Y-4.8062
X2.1562Y-1.6875
X-1.6358Y-1.5
X3.6562Y-1.3125
X-2.3858Y-1.3125
X-3.8858Y-2.4375
X-3.8858Y-1.6875
X4.4062Y-2.25
X5.1562Y-2.4375
X3.6562Y-2.8125
X-0.5714Y-4.4892
X4.4062Y-3.
X-0.8858Y-2.4375
X2.1562Y-2.4375
X-0.8858Y-3.1875
X-2.3858Y-2.8125
X3.6562Y-2.0625
X1.8419Y-4.4892
X-3.1358Y-2.25
X2.9062Y-2.25
X-1.3304Y-4.3422
X-0.8858Y-1.6875
X5.1562Y-1.6875
X2.1562Y-3.1875
X2.9062Y-3.
X4.4062Y-1.5
X-1.6358Y-3.
X-1.6358Y-2.25
T0
M30
